<svg width="66" height="65" viewBox="0 0 66 65" fill="none" xmlns="http://www.w3.org/2000/svg">
<path d="M41.5701 0C37.7105 0.00340712 33.9065 0.905416 30.4686 2.63238C27.0307 4.35934 24.0564 6.8623 21.7885 9.93688C19.5206 13.0115 18.0235 16.5705 17.4194 20.3234C16.8152 24.0763 17.1212 27.9167 18.3122 31.531L0.715251 48.8523C0.488243 49.0761 0.308235 49.3416 0.18551 49.6339C0.0627851 49.9261 -0.000251831 50.2393 7.56083e-07 50.5556V62.5926C7.56083e-07 63.2311 0.25763 63.8434 0.716213 64.2949C1.1748 64.7464 1.79677 65 2.4453 65H14.6718C15.3203 65 15.9423 64.7464 16.4009 64.2949C16.8595 63.8434 17.1171 63.2311 17.1171 62.5926V57.7778H22.0077C22.6562 57.7778 23.2782 57.5241 23.7368 57.0727C24.1954 56.6212 24.453 56.0089 24.453 55.3704V50.5556H29.3436C29.6648 50.5558 29.9829 50.4937 30.2798 50.3729C30.5766 50.2521 30.8464 50.0749 31.0737 49.8514L33.9958 46.9715C37.3566 48.0458 40.914 48.3902 44.423 47.981C47.932 47.5719 51.3093 46.4189 54.3222 44.6015C57.3352 42.784 59.9122 40.3453 61.876 37.4532C63.8398 34.5611 65.1435 31.2844 65.6976 27.8487C66.2516 24.4129 66.0427 20.8998 65.0853 17.5511C64.1279 14.2025 62.4447 11.0979 60.1516 8.45116C57.8585 5.80441 55.01 3.67837 51.8022 2.21942C48.5945 0.760474 45.1036 0.00328825 41.5701 0ZM47.6834 22.8704C46.7161 22.8704 45.7705 22.588 44.9663 22.0589C44.162 21.5299 43.5352 20.7779 43.165 19.8981C42.7949 19.0183 42.698 18.0502 42.8867 17.1162C43.0754 16.1822 43.5412 15.3243 44.2252 14.651C44.9091 13.9776 45.7806 13.519 46.7292 13.3333C47.6779 13.1475 48.6613 13.2428 49.5549 13.6072C50.4486 13.9717 51.2124 14.5888 51.7497 15.3806C52.2871 16.1724 52.574 17.1033 52.574 18.0556C52.574 19.3325 52.0587 20.5572 51.1415 21.4601C50.2244 22.3631 48.9804 22.8704 47.6834 22.8704Z" fill="#FF983F"/>
</svg>
