<svg width="51" height="55" viewBox="0 0 51 55" fill="none" xmlns="http://www.w3.org/2000/svg">
<g id="Vector" filter="url(#filter0_d_481_1479)">
<path d="M46.0118 22.6173C43.2317 20.122 39.525 18.4148 35.6638 17.7581C33.9649 17.3642 32.266 17.1015 30.567 16.9702C34.8916 12.6363 34.1193 6.06994 29.0226 2.39275C23.9258 -1.28444 16.2034 -0.627795 11.8789 3.70603C7.55436 8.03986 8.3266 14.6063 13.4234 18.2834C14.35 18.9401 15.2767 19.4654 16.2034 19.7281V22.6173L13.7323 20.6474C11.57 18.8088 8.0177 18.8088 5.70099 20.6474C3.53872 22.4859 3.38428 25.3752 5.54654 27.2138L12.6511 34.3055C12.96 36.1441 13.7323 37.8513 14.8134 39.4273C15.5856 40.6092 16.6668 41.7912 17.7479 42.7105V45.2057C17.7479 45.9937 18.3657 46.519 19.2924 46.519H40.2972C41.0695 46.519 41.8417 45.8623 41.8417 45.2057V41.7912C44.7762 38.7706 46.3207 34.9621 46.3207 31.1536V23.5366C46.4751 23.0113 46.3207 22.7486 46.0118 22.6173ZM12.0333 10.2724C12.0333 5.93861 16.2034 2.52408 21.3002 2.65541C26.397 2.65541 30.4126 6.20126 30.2581 10.5351C30.2581 12.899 29.0226 15.0002 26.8603 16.4449V9.87845C26.7814 8.74032 26.1935 7.67096 25.2172 6.88958C24.2408 6.10819 22.9499 5.67398 21.6091 5.67595C18.829 5.54462 16.3579 7.51455 16.3579 9.87845V16.7075C13.7323 15.3942 12.1878 12.899 12.0333 10.2724ZM43.3862 31.0223C43.5406 34.4368 42.1506 37.72 39.525 40.3466C39.2161 40.6092 38.9072 40.8719 38.9072 41.2659V44.0238H20.9913V42.1852C20.9913 41.7912 20.6824 41.3972 20.3735 41.1345C19.2924 40.3466 18.3657 39.4273 17.5934 38.2453C16.6668 36.932 16.049 35.3561 15.7401 33.7802C15.7401 33.5175 15.5856 33.2549 15.4312 32.9922L8.0177 25.5065C7.55436 25.1125 7.24546 24.5872 7.24546 23.9306C7.24546 23.4052 7.55436 22.7486 8.0177 22.3546C9.09883 21.5667 10.6433 21.5667 11.7244 22.3546L16.2034 26.1631V30.103L19.1379 28.7897V9.87845C19.2924 8.95916 20.2191 8.17119 21.4546 8.30251C22.5358 8.30251 23.6169 8.95916 23.6169 9.87845V24.9812L26.7058 25.5065V19.4654C26.8603 19.3341 27.0147 19.3341 27.1692 19.2027C28.2503 19.2027 29.3315 19.3341 30.4126 19.4654V26.1631L32.8837 26.5571V19.7281L34.7371 20.122C35.5094 20.2534 36.2816 20.516 37.0538 20.7787V27.3451L39.525 27.7391V21.698C40.915 22.2233 42.1506 23.0113 43.2317 23.9306L43.3862 31.0223Z" fill="white"/>
</g>
<defs>
<filter id="filter0_d_481_1479" x="0" y="0" width="50.3813" height="54.519" filterUnits="userSpaceOnUse" color-interpolation-filters="sRGB">
<feFlood flood-opacity="0" result="BackgroundImageFix"/>
<feColorMatrix in="SourceAlpha" type="matrix" values="0 0 0 0 0 0 0 0 0 0 0 0 0 0 0 0 0 0 127 0" result="hardAlpha"/>
<feOffset dy="4"/>
<feGaussianBlur stdDeviation="2"/>
<feComposite in2="hardAlpha" operator="out"/>
<feColorMatrix type="matrix" values="0 0 0 0 0 0 0 0 0 0 0 0 0 0 0 0 0 0 0.25 0"/>
<feBlend mode="normal" in2="BackgroundImageFix" result="effect1_dropShadow_481_1479"/>
<feBlend mode="normal" in="SourceGraphic" in2="effect1_dropShadow_481_1479" result="shape"/>
</filter>
</defs>
</svg>
