<svg width="64" height="83" viewBox="0 0 64 83" fill="none" xmlns="http://www.w3.org/2000/svg">
<path d="M35.8429 16.7987L36.3559 18.2082L37.7654 17.6952L42.7571 15.8784C42.7701 15.8928 42.7827 15.9076 42.7945 15.9227C42.8159 15.9503 42.8272 15.9687 42.8314 15.9759L44.6987 21.1063C45.1197 22.2628 45.0963 23.7849 44.7222 25.7721C44.4385 27.2786 43.9895 28.891 43.4982 30.6555C43.3422 31.2157 43.182 31.7912 43.0214 32.3835C41.7283 37.1527 40.4584 42.8287 42.4428 48.2809L43.1415 50.2006L40.2607 51.2492L38.8512 51.7622L39.3642 53.1717L40.4128 56.0525L37.532 57.101L34.6512 58.1495L33.6027 55.2688L33.0896 53.8592L31.6801 54.3723L28.7993 55.4208L28.1006 53.501C26.1162 48.0488 21.4949 44.5174 17.4389 41.6952C16.9353 41.3448 16.4428 41.0071 15.9634 40.6784C14.4526 39.6424 13.072 38.6957 11.8863 37.7239C10.3223 36.4421 9.32598 35.2909 8.90497 34.1342L7.03765 29.0038C7.03624 28.9955 7.03303 28.9742 7.03178 28.9393C7.0311 28.9202 7.03116 28.9007 7.0319 28.8813L12.0235 27.0645L13.4331 26.5514L12.92 25.1419L8.59417 13.2566C8.48311 12.9515 8.63143 12.5084 9.09259 12.3405C9.55623 12.1718 9.95484 12.4174 10.0654 12.7212L14.3913 24.6064L14.9043 26.0159L16.3139 25.5029L33.4751 19.2567L34.8847 18.7437L34.3716 17.3342L30.0458 5.4489C29.935 5.14467 30.0832 4.70061 30.5453 4.53241C31.0074 4.36422 31.4063 4.60918 31.517 4.91341L35.8429 16.7987ZM26.117 40.3965C26.117 40.3966 26.117 40.3966 26.117 40.3967L25.2181 40.1005C26.0011 40.3585 26.1036 40.3922 26.117 40.3965ZM25.4839 41.6L28.2758 40.5838L29.0645 47.7064C29.0646 47.7073 29.0647 47.7082 29.0648 47.7091C29.0848 47.8927 29.1314 48.1434 29.2556 48.3988C29.3642 48.622 29.6685 49.1156 30.3227 49.2768C31.0467 49.4553 31.5886 49.0891 31.83 48.8472C32.0693 48.6074 32.1921 48.3401 32.2565 48.1614L32.2582 48.1565C32.313 48.0027 33.4838 44.3232 34.6194 40.7518C35.1921 38.9507 35.7621 37.1571 36.1889 35.8139L36.7042 34.1921L36.8484 33.7382L36.8864 33.6187L36.8961 33.588L36.8972 33.5845C37.0212 33.2026 37.1309 32.4014 36.484 31.7764C35.8289 31.1436 35.0182 31.2933 34.6549 31.4255L31.9069 32.4257C31.8275 31.6897 31.7271 30.7586 31.6256 29.8193C31.404 27.7687 31.1737 25.6424 31.152 25.4686L31.1487 25.4421L31.1444 25.4157C31.1117 25.2125 31.0368 24.9407 30.8584 24.6756C30.6875 24.4217 30.3068 24.0234 29.6736 23.9667C29.0047 23.9068 28.5332 24.2675 28.3017 24.5505C28.1136 24.7805 28.0167 25.0235 27.9647 25.2136C27.8049 25.6966 26.6913 29.0752 25.5911 32.4138L23.993 37.2634L23.4684 38.8555L23.3216 39.301L23.2829 39.4183L23.2742 39.4449C23.1664 39.758 22.9723 40.6051 23.6738 41.2705C24.3786 41.939 25.2373 41.6898 25.4839 41.6ZM32.0473 47.3852L32.0468 47.3807C32.0471 47.3829 32.0472 47.3844 32.0473 47.3852ZM34.0406 32.6696L34.8853 32.9379C34.1082 32.6911 34.0456 32.6713 34.0406 32.6697C34.0406 32.6697 34.0406 32.6696 34.0406 32.6696ZM32.0594 33.9105C32.0594 33.9105 32.0594 33.9106 32.0594 33.9106L30.8841 34.0372L32.0594 33.9105Z" fill="#FF983F" stroke="#FF983F" stroke-width="3"/>
<path d="M38.0445 58.5104C44.3712 65.8048 35.3962 69.5895 44.0463 75.0002" stroke="#FF983F" stroke-width="4" stroke-linecap="round"/>
</svg>
