<svg width="30" height="26" viewBox="0 0 30 26" fill="none" xmlns="http://www.w3.org/2000/svg">
<path d="M0 3.625C0 2.7962 0.31607 2.00134 0.87868 1.41529C1.44129 0.82924 2.20435 0.5 3 0.5H27C27.7956 0.5 28.5587 0.82924 29.1213 1.41529C29.6839 2.00134 30 2.7962 30 3.625V22.375C30 23.2038 29.6839 23.9987 29.1213 24.5847C28.5587 25.1708 27.7956 25.5 27 25.5H3C2.20435 25.5 1.44129 25.1708 0.87868 24.5847C0.31607 23.9987 0 23.2038 0 22.375V3.625ZM5.2785 3.625L15 12.4859L24.7215 3.625H5.2785ZM27 5.70156L15.9885 15.7391C15.715 15.9887 15.3637 16.1263 15 16.1263C14.6363 16.1263 14.285 15.9887 14.0115 15.7391L3 5.70156V22.375H27V5.70156Z" fill="#FF6600"/>
</svg>
