<svg width="59" height="71" viewBox="0 0 59 71" fill="none" xmlns="http://www.w3.org/2000/svg">
<path d="M44.3869 22.0264L44.3138 22.0629C45.1547 23.0475 45.8859 24.2144 46.4344 25.4179L46.7634 26.1108C49.3594 32.2738 47.5312 39.3849 42.7416 43.834C38.3906 47.8089 32.3213 48.8665 26.6906 48.1371C21.3525 47.4807 16.4531 44.1257 13.6378 39.4943C12.7969 38.0721 12.0656 36.4675 11.7 34.8265C11.2247 33.4772 11.0784 32.1644 10.9688 30.8151C10.6397 24.9803 12.9797 18.7808 17.4038 15.134C15.3928 19.5466 15.8681 25.0532 18.8297 28.8823L19.2319 29.3564C19.7438 29.794 20.3653 29.9398 20.9503 29.6846C21.4987 29.4658 21.9375 28.9188 21.9375 28.2623L21.6816 27.4601C18.4641 18.9996 21.1697 9.11688 28.0069 3.53735C29.8716 2.00571 32.175 0.619948 34.5881 0C32.1019 4.95958 32.9062 11.4508 36.8916 15.3528C38.5734 17.0668 40.5844 18.1973 42.3394 19.8019L44.3869 22.0264ZM36.0506 38.9473L36.0141 38.9109C37.6594 37.4886 38.5734 35.0453 38.5003 32.8572L38.3906 31.6903C37.6594 28.0435 34.4784 26.8401 32.4309 24.178C31.8094 23.3757 31.2609 22.3546 30.8587 21.3335C30.0544 23.1569 29.9813 24.8709 30.3103 26.8401C30.6759 28.9188 31.5169 30.7057 31.0781 32.8572C30.4931 35.2276 28.6284 37.598 25.3744 38.3638C27.2025 40.1508 30.1641 41.573 33.1256 40.5519C34.0763 40.2966 35.2828 39.6037 36.0506 38.9473ZM25.5938 55.613V59.2597C25.5938 61.2655 27.2391 62.9065 29.25 62.9065C31.2609 62.9065 32.9062 61.2655 32.9062 59.2597V55.613H40.2188V59.2597C40.2188 61.2655 41.8641 62.9065 43.875 62.9065C45.8859 62.9065 47.5312 61.2655 47.5312 59.2597V55.613C51.5897 55.613 58.5 58.8951 58.5 62.9065V70.2H0V62.9065C0 58.8951 6.94688 55.613 10.9688 55.613V59.2597C10.9688 61.2655 12.6141 62.9065 14.625 62.9065C16.6359 62.9065 18.2812 61.2655 18.2812 59.2597V55.613H25.5938Z" fill="#FF983F"/>
</svg>
