<svg width="24" height="24" viewBox="0 0 24 24" fill="none" xmlns="http://www.w3.org/2000/svg">
<g clip-path="url(#clip0_655_294)">
<path d="M5.26575 9.765C5.73363 8.34945 6.63661 7.11781 7.84586 6.2458C9.05512 5.37378 10.5089 4.90594 11.9997 4.909C13.6897 4.909 15.2177 5.509 16.4177 6.491L19.9097 3C17.7817 1.145 15.0547 0 11.9997 0C7.26975 0 3.19775 2.698 1.23975 6.65L5.26575 9.765Z" fill="#EA4335"/>
<path d="M16.0398 18.0131C14.9498 18.7161 13.5658 19.0911 11.9998 19.0911C10.5149 19.0941 9.06662 18.63 7.86005 17.7644C6.65349 16.8988 5.74976 15.6757 5.27682 14.2681L1.23682 17.3351C2.22806 19.3414 3.76208 21.0295 5.66464 22.2076C7.56719 23.3858 9.76202 24.0068 11.9998 24.0001C14.9328 24.0001 17.7348 22.9571 19.8338 21.0001L16.0408 18.0131H16.0398Z" fill="#34A853"/>
<path d="M19.834 21C22.029 18.952 23.454 15.904 23.454 12C23.454 11.29 23.345 10.527 23.182 9.81799H12V14.455H18.436C18.119 16.014 17.266 17.221 16.041 18.013L19.834 21Z" fill="#4A90E2"/>
<path d="M5.27712 14.268C5.03247 13.5369 4.90819 12.771 4.90912 12C4.90912 11.218 5.03412 10.467 5.26612 9.76503L1.24012 6.65002C0.416494 8.31271 -0.00807994 10.1445 0.000116455 12C0.000116455 13.92 0.445116 15.73 1.23712 17.335L5.27712 14.268Z" fill="#FBBC05"/>
</g>
<defs>
<clipPath id="clip0_655_294">
<rect width="24" height="24" fill="white"/>
</clipPath>
</defs>
</svg>
