<svg width="28" height="28" viewBox="0 0 28 28" fill="none" xmlns="http://www.w3.org/2000/svg">
<g id="Group">
<path id="Vector" d="M13.7187 0C7.99342 0 6.31875 0.00589297 5.99303 0.0326792C4.81819 0.130717 4.08692 0.315542 3.2903 0.712513C2.67636 1.01734 2.19207 1.37092 1.71473 1.86646C0.844182 2.76969 0.31703 3.88132 0.126312 5.20242C0.0336316 5.84368 0.00630964 5.97493 0.000952399 9.25142C-0.0011905 10.3438 0.000952399 11.7811 0.000952399 13.7092C0.000952399 19.4318 0.00738109 21.1049 0.034703 21.43C0.129526 22.5738 0.308994 23.2933 0.688823 24.0803C1.41473 25.5867 2.80065 26.7176 4.433 27.1398C4.99819 27.2855 5.62284 27.3653 6.42429 27.4034C6.76394 27.4184 10.2258 27.4285 13.6898 27.4285C17.1538 27.4285 20.6172 27.4243 20.9488 27.4077C21.8773 27.3637 22.4162 27.2914 23.0119 27.1377C24.655 26.7134 26.0157 25.5996 26.7561 24.0717C27.1284 23.3035 27.317 22.5567 27.4027 21.4729C27.4215 21.2366 27.429 17.4684 27.429 13.7054C27.429 9.94197 27.4204 6.18065 27.4022 5.9444C27.3159 4.84295 27.1268 4.10204 26.7427 3.31935C26.4272 2.67862 26.0773 2.19968 25.5689 1.71057C24.6614 0.843766 23.5519 0.316077 22.2298 0.125359C21.5885 0.0332149 21.461 0.00589297 18.1829 0H13.7187Z" fill="url(#paint0_radial_481_1502)"/>
<path id="Vector_2" d="M13.7187 0C7.99342 0 6.31875 0.00589297 5.99303 0.0326792C4.81819 0.130717 4.08692 0.315542 3.2903 0.712513C2.67636 1.01734 2.19207 1.37092 1.71473 1.86646C0.844182 2.76969 0.31703 3.88132 0.126312 5.20242C0.0336316 5.84368 0.00630964 5.97493 0.000952399 9.25142C-0.0011905 10.3438 0.000952399 11.7811 0.000952399 13.7092C0.000952399 19.4318 0.00738109 21.1049 0.034703 21.43C0.129526 22.5738 0.308994 23.2933 0.688823 24.0803C1.41473 25.5867 2.80065 26.7176 4.433 27.1398C4.99819 27.2855 5.62284 27.3653 6.42429 27.4034C6.76394 27.4184 10.2258 27.4285 13.6898 27.4285C17.1538 27.4285 20.6172 27.4243 20.9488 27.4077C21.8773 27.3637 22.4162 27.2914 23.0119 27.1377C24.655 26.7134 26.0157 25.5996 26.7561 24.0717C27.1284 23.3035 27.317 22.5567 27.4027 21.4729C27.4215 21.2366 27.429 17.4684 27.429 13.7054C27.429 9.94197 27.4204 6.18065 27.4022 5.9444C27.3159 4.84295 27.1268 4.10204 26.7427 3.31935C26.4272 2.67862 26.0773 2.19968 25.5689 1.71057C24.6614 0.843766 23.5519 0.316077 22.2298 0.125359C21.5885 0.0332149 21.461 0.00589297 18.1829 0H13.7187Z" fill="url(#paint1_radial_481_1502)"/>
<path id="Vector_3" d="M13.7187 0C7.99342 0 6.31875 0.00589297 5.99303 0.0326792C4.81819 0.130717 4.08692 0.315542 3.2903 0.712513C2.67636 1.01734 2.19207 1.37092 1.71473 1.86646C0.844182 2.76969 0.31703 3.88132 0.126312 5.20242C0.0336316 5.84368 0.00630964 5.97493 0.000952399 9.25142C-0.0011905 10.3438 0.000952399 11.7811 0.000952399 13.7092C0.000952399 19.4318 0.00738109 21.1049 0.034703 21.43C0.129526 22.5738 0.308994 23.2933 0.688823 24.0803C1.41473 25.5867 2.80065 26.7176 4.433 27.1398C4.99819 27.2855 5.62284 27.3653 6.42429 27.4034C6.76394 27.4184 10.2258 27.4285 13.6898 27.4285C17.1538 27.4285 20.6172 27.4243 20.9488 27.4077C21.8773 27.3637 22.4162 27.2914 23.0119 27.1377C24.655 26.7134 26.0157 25.5996 26.7561 24.0717C27.1284 23.3035 27.317 22.5567 27.4027 21.4729C27.4215 21.2366 27.429 17.4684 27.429 13.7054C27.429 9.94197 27.4204 6.18065 27.4022 5.9444C27.3159 4.84295 27.1268 4.10204 26.7427 3.31935C26.4272 2.67862 26.0773 2.19968 25.5689 1.71057C24.6614 0.843766 23.5519 0.316077 22.2298 0.125359C21.5885 0.0332149 21.461 0.00589297 18.1829 0H13.7187Z" fill="url(#paint2_radial_481_1502)"/>
<path id="Vector_4" d="M13.7187 0C7.99342 0 6.31875 0.00589297 5.99303 0.0326792C4.81819 0.130717 4.08692 0.315542 3.2903 0.712513C2.67636 1.01734 2.19207 1.37092 1.71473 1.86646C0.844182 2.76969 0.31703 3.88132 0.126312 5.20242C0.0336316 5.84368 0.00630964 5.97493 0.000952399 9.25142C-0.0011905 10.3438 0.000952399 11.7811 0.000952399 13.7092C0.000952399 19.4318 0.00738109 21.1049 0.034703 21.43C0.129526 22.5738 0.308994 23.2933 0.688822 24.0803C1.41473 25.5867 2.80065 26.7176 4.433 27.1398C4.99819 27.2855 5.62284 27.3653 6.42429 27.4034C6.76394 27.4184 10.2258 27.4285 13.6898 27.4285C17.1538 27.4285 20.6172 27.4243 20.9488 27.4077C21.8773 27.3637 22.4162 27.2914 23.0119 27.1376C24.655 26.7134 26.0157 25.5996 26.7561 24.0717C27.1284 23.3035 27.317 22.5567 27.4027 21.4729C27.4215 21.2366 27.429 17.4684 27.429 13.7054C27.429 9.94197 27.4204 6.18065 27.4022 5.9444C27.3159 4.84295 27.1268 4.10204 26.7427 3.31935C26.4272 2.67862 26.0773 2.19968 25.5689 1.71057C24.6614 0.843766 23.5519 0.316077 22.2298 0.125359C21.5885 0.0332149 21.461 0.00589297 18.1829 0H13.7187Z" fill="url(#paint3_radial_481_1502)"/>
<path id="Vector_5" d="M13.7198 3.52197C10.9501 3.52197 10.6024 3.53429 9.51486 3.58358C8.42895 3.6334 7.68804 3.80484 7.03982 4.05716C6.36909 4.31752 5.80015 4.66574 5.23335 5.23201C4.66602 5.79827 4.3178 6.36721 4.05637 7.03686C3.80351 7.68509 3.63154 8.42599 3.58279 9.5103C3.53404 10.5973 3.52118 10.945 3.52118 13.7125C3.52118 16.4801 3.5335 16.8267 3.58279 17.9137C3.63261 18.9985 3.80458 19.7389 4.05637 20.3871C4.31727 21.0573 4.66549 21.6257 5.23282 22.1925C5.79961 22.7593 6.36855 23.1086 7.03875 23.369C7.68751 23.6207 8.42895 23.7927 9.51433 23.8425C10.6024 23.8918 10.9495 23.9041 13.7192 23.9041C16.4889 23.9041 16.8355 23.8918 17.9236 23.8425C19.0095 23.7927 19.7515 23.6213 20.4002 23.369C21.071 23.1086 21.6388 22.7598 22.2056 22.193C22.773 21.6268 23.1212 21.0578 23.3826 20.3882C23.6333 19.74 23.8053 18.9991 23.8562 17.9147C23.905 16.8278 23.9178 16.4811 23.9178 13.7136C23.9178 10.946 23.905 10.5984 23.8562 9.51137C23.8053 8.42653 23.6333 7.68616 23.3826 7.03793C23.1212 6.36774 22.773 5.79934 22.2056 5.23254C21.6383 4.66574 21.071 4.31752 20.3997 4.05716C19.7493 3.80537 19.0079 3.6334 17.9225 3.58358C16.8345 3.53429 16.4884 3.52197 13.7176 3.52197H13.7198ZM12.8053 5.35844C13.0769 5.3579 13.3796 5.35844 13.7203 5.35844C16.4434 5.35844 16.7659 5.36808 17.8411 5.41683C18.8354 5.46237 19.3749 5.62844 19.7343 5.76773C20.2101 5.95255 20.5497 6.17327 20.9065 6.53007C21.2633 6.88686 21.4846 7.22651 21.6699 7.70223C21.8097 8.06117 21.9758 8.6001 22.0213 9.59387C22.0701 10.668 22.0808 10.991 22.0808 13.7104C22.0808 16.4303 22.0701 16.7528 22.0213 17.8269C21.9758 18.8207 21.8097 19.3596 21.6699 19.7185C21.4851 20.1943 21.2638 20.5328 20.9065 20.8891C20.5497 21.2459 20.2106 21.4666 19.7343 21.6514C19.3754 21.7918 18.8354 21.9573 17.8411 22.0023C16.7659 22.0511 16.4429 22.0618 13.7203 22.0618C10.9972 22.0618 10.6742 22.0511 9.59951 22.0023C8.6052 21.9562 8.06573 21.7907 7.70572 21.6509C7.23 21.4661 6.88981 21.2453 6.53302 20.8886C6.17623 20.5318 5.95497 20.1932 5.76961 19.7175C5.62979 19.3585 5.46372 18.8196 5.41818 17.8258C5.36943 16.7517 5.35979 16.4286 5.35979 13.7077C5.35979 10.9862 5.36943 10.6653 5.41818 9.59119C5.46372 8.59743 5.62979 8.05849 5.76961 7.69902C5.95444 7.22329 6.17569 6.88364 6.53302 6.52685C6.88981 6.17006 7.23 5.94934 7.70572 5.76398C8.06519 5.62362 8.6052 5.45808 9.59951 5.41254C10.5402 5.37022 10.9051 5.35736 12.8058 5.35522L12.8053 5.35844ZM19.1638 7.05079C18.4882 7.05079 17.9402 7.59776 17.9402 8.27331C17.9402 8.94832 18.4882 9.49637 19.1638 9.49637C19.8393 9.49637 20.3874 8.94886 20.3874 8.27331C20.3874 7.59776 19.8393 7.05025 19.1638 7.05079ZM13.7198 8.47957C10.8274 8.47957 8.48252 10.8228 8.48252 13.7131C8.48252 16.6033 10.8274 18.9455 13.7198 18.9455C16.6121 18.9455 18.9559 16.6033 18.9559 13.7131C18.9559 10.8228 16.6121 8.47957 13.7198 8.47957ZM13.7198 10.316C15.5969 10.316 17.1195 11.837 17.1195 13.7131C17.1195 15.5892 15.5975 17.1101 13.7198 17.1101C11.8421 17.1101 10.3201 15.5892 10.3201 13.7131C10.3206 11.8364 11.8426 10.316 13.7198 10.316Z" fill="white"/>
</g>
<defs>
<radialGradient id="paint0_radial_481_1502" cx="0" cy="0" r="1" gradientUnits="userSpaceOnUse" gradientTransform="translate(26.5435 12.8565) rotate(164.251) scale(17.5257 12.6264)">
<stop stop-color="#FF005F"/>
<stop offset="1" stop-color="#FC01D8"/>
</radialGradient>
<radialGradient id="paint1_radial_481_1502" cx="0" cy="0" r="1" gradientUnits="userSpaceOnUse" gradientTransform="translate(7.28555 29.5417) rotate(-90) scale(21.8944 23.2296)">
<stop stop-color="#FFCC00"/>
<stop offset="0.1242" stop-color="#FFCC00"/>
<stop offset="0.5672" stop-color="#FE4A05"/>
<stop offset="0.6942" stop-color="#FF0F3F"/>
<stop offset="1" stop-color="#FE0657" stop-opacity="0"/>
</radialGradient>
<radialGradient id="paint2_radial_481_1502" cx="0" cy="0" r="1" gradientUnits="userSpaceOnUse" gradientTransform="translate(14.4073 27.0422) rotate(-59.8697) scale(9.05354 11.7867)">
<stop stop-color="#FFCC00"/>
<stop offset="1" stop-color="#FFCC00" stop-opacity="0"/>
</radialGradient>
<radialGradient id="paint3_radial_481_1502" cx="0" cy="0" r="1" gradientUnits="userSpaceOnUse" gradientTransform="translate(3.72149 1.1178) rotate(164.274) scale(17.3312 5.90477)">
<stop stop-color="#780CFF"/>
<stop offset="1" stop-color="#820BFF" stop-opacity="0"/>
</radialGradient>
</defs>
</svg>
