<svg width="21" height="22" viewBox="0 0 21 22" fill="none" xmlns="http://www.w3.org/2000/svg">
<path id="Vector" d="M11.2841 2.46051L13.527 7.18233C13.578 7.30217 13.6583 7.40598 13.7598 7.48341C13.8612 7.56084 13.9804 7.60918 14.1054 7.62362L19.0567 8.38852C19.2001 8.40774 19.3352 8.46909 19.4464 8.56542C19.5576 8.66174 19.6402 8.78906 19.6846 8.93251C19.7289 9.07595 19.7333 9.22961 19.697 9.37552C19.6608 9.52143 19.5855 9.65358 19.4799 9.75653L15.911 13.4487C15.8199 13.5374 15.7515 13.6485 15.7121 13.7718C15.6727 13.8951 15.6635 14.0268 15.6853 14.1547L16.5458 19.3473C16.5707 19.4965 16.5549 19.65 16.5003 19.7903C16.4457 19.9306 16.3544 20.0522 16.2368 20.141C16.1192 20.2299 15.9801 20.2826 15.8352 20.2931C15.6903 20.3036 15.5455 20.2715 15.4173 20.2004L10.9597 17.7439C10.8455 17.6855 10.72 17.6551 10.5929 17.6551C10.4657 17.6551 10.3403 17.6855 10.2261 17.7439L5.7685 20.2004C5.64026 20.2715 5.49545 20.3036 5.35057 20.2931C5.20568 20.2826 5.06653 20.2299 4.94894 20.141C4.83136 20.0522 4.74006 19.9306 4.68544 19.7903C4.63082 19.65 4.61508 19.4965 4.63999 19.3473L5.50048 14.0959C5.52229 13.9679 5.51306 13.8363 5.47364 13.713C5.43422 13.5896 5.36586 13.4786 5.27478 13.3898L1.66354 9.75653C1.5567 9.65076 1.48157 9.51495 1.44724 9.36556C1.41291 9.21617 1.42086 9.05961 1.47013 8.91483C1.51939 8.77006 1.60786 8.64329 1.72481 8.54987C1.84176 8.45646 1.98218 8.40041 2.12905 8.38852L7.0804 7.62362C7.20537 7.60918 7.32454 7.56084 7.42602 7.48341C7.5275 7.40598 7.60774 7.30217 7.65876 7.18233L9.90167 2.46051C9.96275 2.32298 10.0603 2.20655 10.1828 2.12496C10.3052 2.04336 10.4475 2 10.5929 2C10.7382 2 10.8805 2.04336 11.003 2.12496C11.1255 2.20655 11.223 2.32298 11.2841 2.46051Z" fill="#FF983F" stroke="#FF983F" stroke-width="2.03279" stroke-linecap="round" stroke-linejoin="round"/>
</svg>
