<svg width="66" height="72" viewBox="0 0 66 72" fill="none" xmlns="http://www.w3.org/2000/svg">
<path id="Vector" d="M30.42 0C29.835 0 29.25 0.599748 28.08 1.79924V6.59723H20.9829C18.72 4.19824 18.72 4.19824 16.38 6.59723C14.04 8.99622 14.04 8.99622 16.38 11.3952C18.72 13.7942 18.72 13.7942 20.8801 11.3952H28.08V16.1932H32.76V11.3952H39.8828C42.194 13.7942 42.1936 13.7942 44.5336 11.3952C46.8736 8.99622 46.8736 8.99622 44.5336 6.59723C42.1936 4.19824 42.194 4.19824 39.78 6.59723H32.76V1.79924C31.59 0.599748 31.005 0 30.42 0ZM0 11.6951V50.0789H4.68V11.6951H0ZM9.36 18.8921L7.02 16.4931V45.281L9.36 42.882V18.8921ZM30.42 18.5922C25.74 18.5922 23.3488 18.5922 23.2201 23.3902H11.7V37.7841H21.1514C23.4 40.1831 25.74 42.5821 30.42 42.5821C35.1 42.5821 37.44 40.1831 39.78 37.7841C49.14 37.7841 49.14 37.7841 49.14 42.5821V47.3801H63.18V37.7841C63.18 28.1882 58.5 23.3902 49.14 23.3902H37.44C37.4912 18.5922 35.1 18.5922 30.42 18.5922ZM46.8 49.7791V52.1781H65.52V49.7791H46.8ZM56.16 54.5771C56.16 54.5771 50.4821 62.3228 51.48 66.8719C52.0972 69.6847 53.3476 71.37 56.16 71.37C58.9724 71.37 60.2228 69.6847 60.84 66.8719C61.8379 62.3228 56.16 54.5771 56.16 54.5771Z" fill="#FF983F"/>
</svg>
