<svg width="55" height="18" viewBox="0 0 55 18" fill="none" xmlns="http://www.w3.org/2000/svg">
<path d="M9.968 7.28V9.128H0.392V7.28H9.968ZM28.0492 17.168C26.4972 17.168 25.0812 16.808 23.8012 16.088C22.5212 15.352 21.5052 14.336 20.7532 13.04C20.0172 11.728 19.6492 10.256 19.6492 8.624C19.6492 6.992 20.0172 5.528 20.7532 4.232C21.5052 2.92 22.5212 1.904 23.8012 1.184C25.0812 0.447999 26.4972 0.079999 28.0492 0.079999C29.6172 0.079999 31.0412 0.447999 32.3212 1.184C33.6012 1.904 34.6092 2.912 35.3452 4.208C36.0812 5.504 36.4492 6.976 36.4492 8.624C36.4492 10.272 36.0812 11.744 35.3452 13.04C34.6092 14.336 33.6012 15.352 32.3212 16.088C31.0412 16.808 29.6172 17.168 28.0492 17.168ZM28.0492 15.272C29.2172 15.272 30.2652 15 31.1932 14.456C32.1372 13.912 32.8732 13.136 33.4012 12.128C33.9452 11.12 34.2172 9.952 34.2172 8.624C34.2172 7.28 33.9452 6.112 33.4012 5.12C32.8732 4.112 32.1452 3.336 31.2172 2.792C30.2892 2.248 29.2332 1.976 28.0492 1.976C26.8652 1.976 25.8092 2.248 24.8812 2.792C23.9532 3.336 23.2172 4.112 22.6732 5.12C22.1452 6.112 21.8812 7.28 21.8812 8.624C21.8812 9.952 22.1452 11.12 22.6732 12.128C23.2172 13.136 23.9532 13.912 24.8812 14.456C25.8252 15 26.8812 15.272 28.0492 15.272ZM54.8508 7.28V9.128H45.2748V7.28H54.8508Z" fill="black"/>
</svg>
