<svg width="66" height="61" viewBox="0 0 66 61" fill="none" xmlns="http://www.w3.org/2000/svg">
<path d="M63 26.7838V4.78378C63 4.31069 62.8104 3.85698 62.4728 3.52246C62.1352 3.18793 61.6774 3 61.2 3H4.8C4.32261 3 3.86477 3.18793 3.52721 3.52246C3.18964 3.85698 3 4.31069 3 4.78378V26.7838M63 26.7838H3M63 26.7838L60.63 34.4659C60.2548 35.6838 59.495 36.7502 58.4624 37.508C57.4298 38.2658 56.1789 38.6751 54.894 38.6757H51M3 26.7838L5.37 34.4659C5.7452 35.6838 6.50503 36.7502 7.53763 37.508C8.57023 38.2658 9.82106 38.6751 11.106 38.6757H15M51 14.8919H54M25.5 37.1892C25.5 37.1892 25.5 58 15 58M40.5 37.1892C40.5 37.1892 40.5 58 51 58M33 37.1892V58" stroke="#FF983F" stroke-width="5" stroke-linecap="round" stroke-linejoin="round"/>
</svg>
