<svg width="28" height="28" viewBox="0 0 28 28" fill="none" xmlns="http://www.w3.org/2000/svg">
<g id="Group 4">
<path id="Vector" d="M23.4503 0H4.13828C1.85277 0 0 1.85277 0 4.13828V23.4503C0 25.7358 1.85277 27.5885 4.13828 27.5885H23.4503C25.7358 27.5885 27.5885 25.7358 27.5885 23.4503V4.13828C27.5885 1.85277 25.7358 0 23.4503 0Z" fill="#1DA1F2"/>
<path id="Vector_2" d="M23.3903 7.73519C22.7417 8.05401 21.9851 8.26656 21.2284 8.37284C22.0391 7.8946 22.6336 7.15068 22.9579 6.24734C22.2013 6.67244 21.3906 6.99126 20.5258 7.15068C19.9376 6.55843 19.17 6.16968 18.338 6.04279C17.5061 5.91589 16.6547 6.05769 15.9117 6.4469C15.1686 6.83611 14.574 7.45174 14.2171 8.2014C13.8602 8.95106 13.7601 9.79431 13.932 10.6046C10.9054 10.4452 7.98683 9.06362 6.09517 6.67244C5.83777 7.07663 5.6643 7.52692 5.58476 7.99734C5.50521 8.46776 5.52116 8.94901 5.6317 9.41334C5.74223 9.87767 5.94516 10.3159 6.22878 10.7028C6.5124 11.0896 6.8711 11.4174 7.28421 11.6673C6.68969 11.6673 6.09517 11.5611 5.5547 11.2954C5.60874 13.0489 6.85183 14.5899 8.58135 14.9619C8.04087 15.1213 7.44635 15.1213 6.85183 15.015C7.3923 16.556 8.85158 17.6187 10.473 17.6719C8.90563 18.9472 6.79778 19.5317 4.79803 19.2129C6.46913 20.3092 8.41914 20.9234 10.4271 20.986C12.4351 21.0486 14.4208 20.557 16.1591 19.5669C17.8975 18.5769 19.3191 17.1279 20.2628 15.3843C21.2065 13.6406 21.6346 11.6719 21.4986 9.70127C22.2553 9.16989 22.9039 8.53225 23.3903 7.73519Z" fill="white"/>
</g>
</svg>
