<svg width="22" height="22" viewBox="0 0 22 22" fill="none" xmlns="http://www.w3.org/2000/svg">
<path id="Vector" d="M11.5628 2.46051L13.8057 7.18233C13.8567 7.30217 13.937 7.40598 14.0384 7.48341C14.1399 7.56084 14.2591 7.60918 14.3841 7.62362L19.3354 8.38852C19.4788 8.40774 19.6139 8.46909 19.7251 8.56542C19.8363 8.66174 19.9189 8.78906 19.9633 8.93251C20.0076 9.07595 20.0119 9.22961 19.9757 9.37552C19.9395 9.52143 19.8642 9.65358 19.7586 9.75653L16.1897 13.4487C16.0986 13.5374 16.0302 13.6485 15.9908 13.7718C15.9514 13.8951 15.9422 14.0268 15.964 14.1547L16.8245 19.3473C16.8494 19.4965 16.8336 19.65 16.779 19.7903C16.7244 19.9306 16.6331 20.0522 16.5155 20.141C16.3979 20.2299 16.2588 20.2826 16.1139 20.2931C15.969 20.3036 15.8242 20.2715 15.696 20.2004L11.2383 17.7439C11.1242 17.6855 10.9987 17.6551 10.8716 17.6551C10.7444 17.6551 10.6189 17.6855 10.5048 17.7439L6.04719 20.2004C5.91894 20.2715 5.77414 20.3036 5.62925 20.2931C5.48436 20.2826 5.34521 20.2299 5.22763 20.141C5.11004 20.0522 5.01875 19.9306 4.96413 19.7903C4.90951 19.65 4.89376 19.4965 4.91868 19.3473L5.77917 14.0959C5.80097 13.9679 5.79175 13.8363 5.75233 13.713C5.71291 13.5896 5.64455 13.4786 5.55346 13.3898L1.94223 9.75653C1.83539 9.65076 1.76026 9.51495 1.72593 9.36556C1.6916 9.21617 1.69955 9.05961 1.74881 8.91484C1.79808 8.77006 1.88654 8.64329 2.00349 8.54987C2.12044 8.45646 2.26086 8.40041 2.40774 8.38852L7.35908 7.62362C7.48406 7.60918 7.60323 7.56084 7.70471 7.48341C7.80619 7.40598 7.88643 7.30217 7.93744 7.18233L10.1804 2.46051C10.2414 2.32298 10.339 2.20655 10.4614 2.12496C10.5839 2.04336 10.7262 2 10.8716 2C11.0169 2 11.1592 2.04336 11.2817 2.12496C11.4042 2.20655 11.5017 2.32298 11.5628 2.46051Z" stroke="#FF983F" stroke-width="2.03279" stroke-linecap="round" stroke-linejoin="round"/>
</svg>
